<?xml version="1.0" encoding="UTF-8" standalone="no"?><!DOCTYPE svg PUBLIC "-//W3C//DTD SVG 1.1//EN" "http://www.w3.org/Graphics/SVG/1.1/DTD/svg11.dtd"><svg width="100%" height="100%" viewBox="0 0 4267 6400" version="1.1" xmlns="http://www.w3.org/2000/svg" xmlns:xlink="http://www.w3.org/1999/xlink" xml:space="preserve" xmlns:serif="http://www.serif.com/" style="fill-rule:evenodd;clip-rule:evenodd;"><g><g><path d="M2083.992,2831.623l-2.658,-17.244c-0.319,-2.419 -2.404,-4.248 -4.844,-4.248c-1.834,0 -3.52,1.033 -4.353,2.667c-58.99,114.027 -136.373,229.204 -195.147,328.43c-113.237,191.171 -173.927,293.918 -182.07,308.24c-39.662,69.767 -56.187,101.31 -95.418,164.179c-23.088,36.979 -46.224,79.012 -69.408,126.098c-0.148,0.31 -0.226,0.649 -0.226,0.993c0,1.261 1.038,2.299 2.299,2.299c0.325,0 0.647,-0.069 0.944,-0.203l21.555,-10.131" style="fill:none;fill-rule:nonzero;stroke:#8eaf13;stroke-width:29.17px;"/><path d="M3282.32,3207.475c-35.997,18.106 -73.216,48.787 -99.082,65.169c-239.359,151.845 -414.531,262.303 -525.517,331.376c-137.594,85.646 -247.885,156.635 -352.86,221.804c-294.109,182.645 -600.122,373.84 -918.038,573.585c-2.276,1.423 -4.838,2.399 -7.544,2.874l-21.124,3.736" style="fill:none;fill-rule:nonzero;stroke:#6e8113;stroke-width:29.17px;"/><path d="M3170.161,3292.762c-37.123,19.16 -63.756,34.081 -79.898,44.763c-43.542,28.884 -95.346,59.421 -132.493,83.563c-85.071,55.325 -182.333,117.021 -291.786,185.088c-216.774,134.72 -364.068,228.917 -616.552,386.558c-368.212,229.875 -560.556,350.009 -577.034,360.404c-27.064,17.101 -51.206,33.099 -72.426,47.996c-1.916,1.341 -2.371,3.042 -1.365,5.101c0.335,0.719 1.245,0.886 2.73,0.503" style="fill:none;fill-rule:nonzero;stroke:#223101;stroke-width:29.17px;"/><path d="M2730.577,3618.318c-10.73,2.874 -19.591,9.029 -26.585,18.466" style="fill:none;fill-rule:nonzero;stroke:#223101;stroke-width:29.17px;"/><path d="M1646.204,4404.007c-50.104,-3.593 -88.089,-4.766 -113.955,-3.521c-31.614,1.533 -55.66,1.868 -72.138,1.006c-0.812,-0.048 -1.606,-0.024 -2.371,0.072l-37.291,4.527" style="fill:none;fill-rule:nonzero;stroke:#223101;stroke-width:29.17px;"/><path d="M3601.697,4406.593c-2.587,0.383 -4.982,0.263 -7.185,-0.359" style="fill:none;fill-rule:nonzero;stroke:#6e8113;stroke-width:29.17px;"/><path d="M2083.992,2831.623l-2.658,-17.244c-0.319,-2.419 -2.404,-4.248 -4.844,-4.248c-1.834,0 -3.52,1.033 -4.353,2.667c-58.99,114.027 -136.373,229.204 -195.147,328.43c-113.237,191.171 -173.927,293.918 -182.07,308.24c-39.662,69.767 -56.187,101.31 -95.418,164.179c-23.088,36.979 -46.224,79.012 -69.408,126.098c-0.148,0.31 -0.226,0.649 -0.226,0.993c0,1.261 1.038,2.299 2.299,2.299c0.325,0 0.647,-0.069 0.944,-0.203l21.555,-10.131c68.115,-23.519 136.876,-46.296 206.284,-68.33c112.758,-35.782 181.783,-57.792 207.074,-66.031c165.64,-54.223 276.506,-89.933 332.598,-107.13c124.733,-38.225 245.155,-75.635 361.266,-112.231c89.239,-28.166 177.807,-56.163 265.704,-83.994c28.884,-9.197 73.935,-20.98 110.219,-34.991c2.682,-1.054 7.688,-1.916 15.017,-2.587c1.1,-0.144 2.181,-0.36 3.233,-0.647l258.807,-78.677c0.16,-0.056 0.327,-0.084 0.496,-0.084c0.828,0 1.509,0.681 1.509,1.509c0,0.49 -0.239,0.951 -0.64,1.234l-33.914,26.729c-35.997,18.106 -73.216,48.787 -99.082,65.169c-239.359,151.845 -414.531,262.303 -525.517,331.376c-137.594,85.646 -247.885,156.635 -352.86,221.804c-294.109,182.645 -600.122,373.84 -918.038,573.585c-2.276,1.423 -4.838,2.399 -7.544,2.874l-21.124,3.736l-759.248,-0.216c-1.046,-0.026 -1.893,-0.893 -1.893,-1.939c0,-0.327 0.083,-0.648 0.24,-0.935c73.719,-122.673 150.48,-252.292 230.282,-388.857c105.621,-180.777 218.57,-366.367 330.083,-557.994c39.566,-68.067 83.706,-142.384 132.421,-222.953c102.124,-168.897 189.327,-313.389 261.609,-433.476c66.055,-109.836 194.788,-320.551 386.198,-632.144c67.779,-110.411 111.632,-182.262 131.559,-215.553c0.323,-0.545 0.911,-0.88 1.545,-0.88c0.633,0 1.222,0.335 1.545,0.88l766.289,1209.681c0.155,0.241 0.295,0.492 0.419,0.751c1.612,3.38 0.128,7.501 -3.287,9.13c-0.259,0.123 -0.524,0.231 -0.796,0.321l-445.835,146.863c-2.059,0.682 -4.336,-0.157 -5.461,-2.012l-299.834,-485.065Z" style="fill:#daff24;fill-rule:nonzero;stroke:#000;stroke-width:29.17px;stroke-linejoin:round;stroke-miterlimit:2;"/><path d="M2083.992,2831.623l-529.325,901.081l-21.555,10.131c-0.297,0.134 -0.619,0.203 -0.944,0.203c-1.261,0 -2.299,-1.038 -2.299,-2.299c0,-0.344 0.077,-0.683 0.226,-0.993c23.184,-47.086 46.32,-89.119 69.408,-126.098c39.231,-62.869 55.756,-94.412 95.418,-164.179c8.143,-14.322 68.833,-117.069 182.07,-308.24c58.774,-99.226 136.157,-214.403 195.147,-328.43c0.833,-1.634 2.519,-2.667 4.353,-2.667c2.44,0 4.525,1.828 4.844,4.248l2.658,17.244Z" style="fill:#415e01;fill-rule:nonzero;stroke:#000;stroke-width:29.17px;stroke-linejoin:round;stroke-miterlimit:2;"/><path d="M3282.32,3207.475l-112.159,85.287c-37.123,19.16 -63.756,34.081 -79.898,44.763c-43.542,28.884 -95.346,59.421 -132.493,83.563c-85.071,55.325 -182.333,117.021 -291.786,185.088c-216.774,134.72 -364.068,228.917 -616.552,386.558c-368.212,229.875 -560.556,350.009 -577.034,360.404c-27.064,17.101 -51.206,33.099 -72.426,47.996c-1.916,1.341 -2.371,3.042 -1.365,5.101c0.335,0.719 1.245,0.886 2.73,0.503l-43.182,-0.719l21.124,-3.736c2.706,-0.475 5.268,-1.451 7.544,-2.874c317.916,-199.745 623.929,-390.94 918.038,-573.585c104.974,-65.169 215.265,-136.157 352.86,-221.804c110.986,-69.073 286.158,-179.531 525.517,-331.376c25.866,-16.382 63.085,-47.062 99.082,-65.169Z" style="fill:#020301;fill-opacity:0.99;fill-rule:nonzero;stroke:#000;stroke-width:29.17px;stroke-linejoin:round;stroke-miterlimit:2;"/><path d="M3170.161,3292.762c-43.59,35.015 -87.107,68.498 -130.553,100.447c-92.735,68.258 -185.519,136.469 -278.35,204.631c-10.538,7.76 -20.765,14.586 -30.68,20.477c-10.73,2.874 -19.591,9.029 -26.585,18.466c0.335,1.245 -0.814,2.778 -3.449,4.598c-15.52,10.634 -42.2,30.034 -80.042,58.199c-186.477,138.72 -298.876,221.588 -337.196,248.604c-98.723,69.48 -167.915,122.29 -269.513,194.716c-121.524,86.652 -244.053,173.687 -367.589,261.106c-50.104,-3.593 -88.089,-4.766 -113.955,-3.521c-31.614,1.533 -55.66,1.868 -72.138,1.006c-0.812,-0.048 -1.606,-0.024 -2.371,0.072l-37.291,4.527l-19.112,0.647c-1.485,0.383 -2.395,0.216 -2.73,-0.503c-1.006,-2.06 -0.551,-3.76 1.365,-5.101c21.22,-14.897 45.362,-30.896 72.426,-47.996c16.478,-10.394 208.823,-130.529 577.034,-360.404c252.484,-157.641 399.778,-251.837 616.552,-386.558c109.453,-68.067 206.715,-129.763 291.786,-185.088c37.147,-24.142 88.951,-54.678 132.493,-83.563c16.142,-10.682 42.775,-25.603 79.898,-44.763Z" style="fill:#415e01;fill-rule:nonzero;stroke:#000;stroke-width:29.17px;stroke-linejoin:round;stroke-miterlimit:2;"/><path d="M3601.697,4406.593c-2.587,0.383 -4.982,0.263 -7.185,-0.359l-534.427,-0.072c-6.768,-0.007 -13.051,-3.558 -16.526,-9.341l-340.717,-571.286c-1.088,-1.78 -0.651,-4.121 1.006,-5.389l361.41,-284.026c0.029,-0.026 0.06,-0.05 0.092,-0.073c0.607,-0.438 1.487,-0.272 1.948,0.367c0.015,0.021 0.03,0.043 0.044,0.065l544.845,860.126c1.291,2.011 1.021,4.657 -0.647,6.323c-2.156,2.156 -5.437,3.377 -9.844,3.664Z" style="fill:#daff24;fill-rule:nonzero;stroke:#000;stroke-width:29.17px;stroke-linejoin:round;stroke-miterlimit:2;"/><path d="M2730.577,3618.318c-7.425,8.478 -16.286,14.634 -26.585,18.466c6.993,-9.436 15.855,-15.592 26.585,-18.466Z" style="fill:#020301;fill-opacity:0.99;fill-rule:nonzero;stroke:#000;stroke-width:29.17px;stroke-linejoin:round;stroke-miterlimit:2;"/><path d="M1646.204,4404.007l-225.755,2.084l37.291,-4.527c0.765,-0.096 1.559,-0.12 2.371,-0.072c16.478,0.862 40.524,0.527 72.138,-1.006c25.866,-1.245 63.851,-0.072 113.955,3.521Z" style="fill:#020301;fill-opacity:0.99;fill-rule:nonzero;stroke:#000;stroke-width:29.17px;stroke-linejoin:round;stroke-miterlimit:2;"/><path d="M3601.697,4406.593c-2.682,0.575 -5.077,0.455 -7.185,-0.359c2.203,0.623 4.598,0.742 7.185,0.359Z" style="fill:#020301;fill-opacity:0.99;fill-rule:nonzero;stroke:#000;stroke-width:29.17px;stroke-linejoin:round;stroke-miterlimit:2;"/></g></g><path d="M1838.708,5349.5l-5.542,0.083l5.542,-0.083Z" style="fill:#020301;fill-opacity:0.99;fill-rule:nonzero;"/><path d="M1854,5349.583l-14.25,-0.083l14.25,0.083Z" style="fill:#020301;fill-opacity:0.99;fill-rule:nonzero;"/><path d="M1926.208,5349.458c-1.556,0.222 -3.056,0.153 -4.5,-0.208l4.5,0.208Z" style="fill:#020301;fill-opacity:0.99;fill-rule:nonzero;"/></svg>